<svg width="24" height="24" viewBox="0 0 24 24" fill="none" xmlns="http://www.w3.org/2000/svg">
<path d="M11.4341 2.1644C11.5796 2.01443 11.7787 1.92836 11.9877 1.9251C12.0932 1.92345 12.198 1.943 12.2959 1.9826C12.3937 2.0222 12.4826 2.08104 12.5573 2.15563C12.632 2.23022 12.6909 2.31904 12.7307 2.41683C12.7703 2.51446 12.79 2.61904 12.7886 2.7244M11.4341 2.1644L12.7136 3.36243H12.7886M11.4341 2.1644C11.2886 2.31424 11.2086 2.51563 11.2114 2.7244V3.36243H2.72424L11.4341 2.1644ZM12.7886 2.7244C12.7886 2.72458 12.7886 2.72476 12.7886 2.72494L12.7136 2.72387H12.7886V2.7244ZM12.7886 2.7244V3.36243M12.7886 3.36243V3.43743L21.2763 4.86455C21.3708 4.86588 21.4647 4.84842 21.5525 4.81316C21.6402 4.7779 21.7201 4.72555 21.7874 4.65916C21.8547 4.59276 21.9082 4.51365 21.9447 4.42641C21.9812 4.33917 22 4.24555 22 4.15099C22 4.05642 21.9812 3.9628 21.9447 3.87556C21.9082 3.78832 21.8547 3.70921 21.7874 3.64282C21.7201 3.57643 21.6402 3.52408 21.5525 3.48882C21.4647 3.45356 21.3708 3.43609 21.2763 3.43743V3.36243H21.2758H12.7886ZM14.3912 16.1972L14.3901 16.1972C14.3447 16.1964 14.2994 16.1995 14.2546 16.2065H9.74632C9.69301 16.1982 9.63899 16.1955 9.5851 16.1982L9.58463 16.1983C9.55886 16.1998 9.53319 16.2025 9.50769 16.2065H5.57796C4.95424 16.2065 4.4637 15.716 4.4637 15.0922V4.93955H11.877C11.9576 4.95213 12.0396 4.95213 12.1202 4.93955H19.5363V15.0922C19.5363 15.716 19.0458 16.2065 18.422 16.2065H14.4886C14.4564 16.2014 14.4238 16.1983 14.3912 16.1972ZM16.9788 7.16161L16.9788 7.16161C16.7742 7.16757 16.5799 7.25287 16.437 7.39947C16.4369 7.39958 16.4368 7.3997 16.4367 7.39982L11.7621 12.0743L9.94116 10.2533L9.94115 10.2533C9.79326 10.1055 9.59272 10.0225 9.38362 10.0225C9.17451 10.0225 8.97397 10.1055 8.82608 10.2533L8.82607 10.2533L6.44807 12.6313C6.37265 12.7039 6.31243 12.7907 6.27091 12.8868C6.22929 12.9831 6.2073 13.0867 6.20623 13.1917C6.20517 13.2966 6.22504 13.4006 6.2647 13.4978C6.30435 13.5949 6.36299 13.6831 6.43718 13.7573C6.51136 13.8315 6.5996 13.8901 6.69673 13.9298C6.79387 13.9694 6.89793 13.9893 7.00284 13.9883C7.10775 13.9872 7.21139 13.9652 7.30769 13.9236C7.40376 13.8821 7.49061 13.8218 7.56316 13.7464L9.38362 11.926L11.2046 13.747L11.2046 13.747C11.3525 13.8948 11.553 13.9778 11.7621 13.9778C11.9712 13.9778 12.1718 13.8948 12.3197 13.747L12.3197 13.747L17.5518 8.51488C17.5519 8.51476 17.552 8.51465 17.5521 8.51453C17.6657 8.40379 17.7432 8.26136 17.7746 8.10586C17.806 7.9502 17.7897 7.78868 17.7278 7.64245C17.6658 7.49622 17.5612 7.37208 17.4276 7.28628C17.294 7.20049 17.1376 7.15703 16.9788 7.16161ZM21.1134 4.93955H21.2758L2.72372 3.43743C2.62917 3.43609 2.53529 3.45356 2.44754 3.48882C2.3598 3.52408 2.27994 3.57643 2.2126 3.64282C2.14526 3.70921 2.09179 3.78832 2.05529 3.87556C2.01879 3.9628 2 4.05642 2 4.15099C2 4.24555 2.01879 4.33917 2.05529 4.42641C2.09179 4.51365 2.14526 4.59276 2.2126 4.65916C2.27994 4.72555 2.3598 4.7779 2.44754 4.81316C2.53529 4.84842 2.62917 4.86588 2.72372 4.86455V4.93955H2.72423H2.88658V15.0922C2.88658 16.5702 4.10001 17.7836 5.57796 17.7836H8.34614L6.77619 20.9227C6.77605 20.9229 6.77592 20.9232 6.77578 20.9234C6.72688 21.0162 6.69694 21.1177 6.68774 21.2221C6.6785 21.3268 6.6903 21.4323 6.72243 21.5324C6.75456 21.6325 6.80637 21.7252 6.87483 21.8049C6.94328 21.8847 7.027 21.95 7.12104 21.997C7.21509 22.0439 7.31758 22.0716 7.42248 22.0784C7.52738 22.0851 7.63258 22.0709 7.73189 22.0364C7.8312 22.002 7.92262 21.948 8.00076 21.8777C8.07869 21.8076 8.14185 21.7226 8.18657 21.6278C8.1867 21.6276 8.18683 21.6273 8.18696 21.627L10.1082 17.7836H13.8918L15.813 21.627C15.8132 21.6273 15.8133 21.6276 15.8134 21.6278C15.8581 21.7226 15.9213 21.8076 15.9992 21.8777C16.0774 21.948 16.1688 22.002 16.2681 22.0364C16.3674 22.0709 16.4726 22.0851 16.5775 22.0784C16.6824 22.0716 16.7849 22.0439 16.879 21.997C16.973 21.95 17.0567 21.8847 17.1252 21.8049C17.1936 21.7252 17.2454 21.6325 17.2776 21.5324C17.3097 21.4323 17.3215 21.3268 17.3123 21.2221C17.3031 21.1177 17.2731 21.0162 17.2242 20.9234C17.2241 20.9232 17.224 20.9229 17.2238 20.9227L15.6539 17.7836H18.422C19.9 17.7836 21.1134 16.5702 21.1134 15.0922V4.93955Z" fill="#7F7989" stroke="#7F7989" stroke-width="0.15"/>
</svg>
